<?xml version="1.0" encoding="UTF-8" standalone="no"?>
<!DOCTYPE svg PUBLIC "-//W3C//DTD SVG 1.1//EN" "http://www.w3.org/Graphics/SVG/1.1/DTD/svg11.dtd">
<svg width="100%" height="100%" viewBox="0 0 512 512" version="1.1" xmlns="http://www.w3.org/2000/svg" xmlns:xlink="http://www.w3.org/1999/xlink" xml:space="preserve" xmlns:serif="http://www.serif.com/" style="fill-rule:evenodd;clip-rule:evenodd;stroke-linejoin:round;stroke-miterlimit:2;">
    <g transform="matrix(1.53226,0,0,1.53226,-19.8065,-142.387)">
        <g transform="matrix(3.67394e-17,0.6,-0.774957,4.74524e-17,276.497,104)">
            <path d="M160,60L159.997,60C104.77,60 60,94.663 60,137.421L60,266.463L60.003,266.463C115.23,266.463 160,231.8 160,189.042L160,60Z"/>
        </g>
        <g transform="matrix(2.75546e-17,0.45,-0.581218,3.55893e-17,224.873,200.5)">
            <path d="M160,60L160,60C104.772,60 60,94.664 60,137.424C60,196.017 60,266.463 60,266.463L60.004,266.463C115.23,266.463 160,231.801 160,189.043C160,130.449 160,60 160,60Z"/>
        </g>
        <path d="M69.341,164.885C78.051,185.885 97.964,201.067 120,204.713L120,221.908C101.482,221.905 82.963,221.944 64.444,221.944L64.444,227.511C64.446,228.158 64.457,228.805 64.481,229.452C65.499,256.236 89.299,277.815 114.672,278.055C116.448,278.06 118.224,278.065 120,278.069L120,316C120,351.346 91.346,380 56,380L56,380C56,380 56,275.096 56,204C56,189.269 60.977,175.701 69.341,164.885Z"/>
        <g transform="matrix(3.67394e-17,-0.6,0.774957,4.74524e-17,83.5026,416)">
            <path d="M160,60L159.997,60C104.77,60 60,94.663 60,137.421L60,266.463L60.003,266.463C115.23,266.463 160,231.8 160,189.042L160,60Z"/>
        </g>
        <path d="M240,230L240,204C240,168.654 268.654,140 304,140L304,140L304,316C304,330.731 299.023,344.299 290.659,355.115C281.949,334.115 262.036,318.933 240,315.287L240,310L240,230Z"/>
    </g>
</svg>
