<?xml version="1.0" encoding="UTF-8" standalone="no"?>
<!DOCTYPE svg PUBLIC "-//W3C//DTD SVG 1.1//EN" "http://www.w3.org/Graphics/SVG/1.1/DTD/svg11.dtd">
<svg width="100%" height="100%" viewBox="0 0 512 512" version="1.1" xmlns="http://www.w3.org/2000/svg" xmlns:xlink="http://www.w3.org/1999/xlink" xml:space="preserve" xmlns:serif="http://www.serif.com/" style="fill-rule:evenodd;clip-rule:evenodd;stroke-linejoin:round;stroke-miterlimit:2;">
    <g>
        <path d="M511,41C511,18.909 493.091,1 471,1L41.016,1C30.403,1 20.225,5.216 12.72,12.72C5.216,20.225 1,30.403 1,41.016L1,471C1,493.091 18.909,511 41,511L471,511C493.091,511 511,493.091 511,471L511,41ZM332.317,347.576C382.892,347.577 423.89,388.575 423.89,439.15L423.89,439.153L271.26,439.153C220.685,439.153 179.686,398.154 179.686,347.579L179.686,347.576L332.317,347.576ZM87.104,110.828C100.398,142.881 130.79,166.052 164.424,171.617L164.424,197.861C136.16,197.857 107.895,197.917 79.631,197.917L79.631,206.413C79.634,207.401 79.65,208.389 79.687,209.376C81.241,250.255 117.565,283.191 156.291,283.556C159.002,283.565 161.713,283.572 164.424,283.579L164.424,341.471C164.424,395.419 120.69,439.153 66.742,439.153L66.742,439.153C66.742,439.153 66.742,279.041 66.742,170.529C66.742,148.045 74.338,127.336 87.104,110.828ZM347.576,210.212L347.576,170.529C347.576,116.581 391.31,72.847 445.258,72.847L445.258,72.847L445.258,341.471C445.258,363.955 437.662,384.664 424.896,401.172C411.602,369.119 381.21,345.948 347.576,340.383L347.576,332.314L347.576,210.212ZM271.263,275.078L271.263,275.078C271.263,237.146 240.513,206.396 202.58,206.396C150.603,206.396 88.11,206.396 88.11,206.396L88.11,206.399C88.11,244.33 118.859,275.078 156.789,275.078L271.263,275.078ZM332.314,164.424L332.314,164.421C332.314,113.846 291.315,72.847 240.74,72.847L88.11,72.847L88.11,72.85C88.11,123.425 129.109,164.424 179.683,164.424L332.314,164.424Z"/>
    </g>
</svg>
